<svg width="183" height="60" viewBox="0 0 183 60" fill="none" xmlns="http://www.w3.org/2000/svg">
<path d="M29.9968 7.02445e-07C24.0633 0.000642676 18.2633 1.76074 13.3302 5.05771C8.39709 8.35469 4.55242 13.0405 2.28238 18.5225C0.0123498 24.0045 -0.581098 30.0366 0.577088 35.8559C1.73527 41.6752 4.59307 47.0204 8.7891 51.2155C12.9851 55.4106 18.3309 58.2673 24.1505 59.4242C29.97 60.5811 36.002 59.9863 41.4835 57.7151C46.965 55.4439 51.65 51.5982 54.9459 46.6644C58.2418 41.7306 60.0006 35.9302 60 29.9967C60 26.057 59.2239 22.1558 57.716 18.516C56.2081 14.8762 53.998 11.5691 51.2119 8.78355C48.4257 5.99801 45.1181 3.7886 41.478 2.2815C37.8379 0.774408 33.9365 -0.000851878 29.9968 7.02445e-07ZM30.8341 57.3418C17.1146 58.2246 6.88089 47.6663 4.73549 41.1814C4.80365 41.1295 4.95619 41.0386 4.95619 41.0386C8.27005 40.1006 11.4833 41.7884 15.1282 44.8523C17.7637 47.0691 23.0218 53.1418 29.4677 56.0565C29.9538 56.33 30.4645 56.5571 30.9932 56.7348C30.9932 56.8095 30.8731 57.186 30.8341 57.3418ZM40.5258 55.3002C40.0779 55.4657 36.7251 56.5336 34.1188 55.8098C33.619 55.6637 33.1451 55.5079 32.655 55.3294C29.0847 54.0084 25.7968 51.8241 22.6842 49.3995C18.7634 46.3388 15.9039 42.3758 10.6362 39.8961C10.6714 39.8106 10.6964 39.7213 10.7108 39.63C13.6319 39.974 17.3061 40.3343 22.1292 43.2911C23.9922 44.4304 31.6358 48.9386 32.655 49.4385C34.7191 50.4401 36.8607 51.2737 39.0587 51.9312C40.302 52.2913 41.5658 52.5764 42.8432 52.7848C42.8432 52.7848 43.8689 52.9114 44.1805 52.9406L44.3784 53.408C43.1467 54.132 41.8634 54.7645 40.5388 55.3002H40.5258ZM49.8702 49.1334C46.8517 51.7299 42.5576 51.1717 39.6235 50.4706C35.1282 49.3865 27.9552 45.3229 26.0727 44.0798C26.1181 44.0279 26.2382 43.8526 26.2837 43.8039C29.789 45.06 43.9305 48.6141 53.1159 43.9435C53.184 44.0149 53.2457 44.0928 53.3106 44.161C53.3755 44.2291 53.5443 44.3849 53.6157 44.4531C52.5317 46.138 51.2766 47.7065 49.8702 49.1334ZM48.1532 43.7715C48.5352 43.3878 48.8258 42.923 49.0036 42.4115L50.3018 38.3771H48.2863C46.6926 40.7952 42.8627 40.4284 39.6884 38.4583C34.6933 35.3457 31.2301 33.4339 28.7796 33.2879C28.4544 33.2681 28.1279 33.2833 27.8059 33.3333C28.1889 37.1632 28.9419 39.5391 29.3671 40.6297C29.4629 40.8741 29.5713 41.1136 29.6917 41.347L29.2113 41.2398C29.0766 41.0691 28.9509 40.8914 28.8348 40.7076C28.2408 39.7988 27.0659 37.6891 26.1344 34.0798C25.4141 34.6539 24.9328 35.4752 24.7842 36.3843C24.7555 36.6505 24.7415 36.9182 24.742 37.186L25.7579 39.5618L27.0821 42.6485C26.6115 42.4732 26.0143 42.2233 25.3262 41.9409C20.6232 39.9935 11.0841 36.0273 3.85266 39.3995C2.4829 35.5859 1.96373 31.5188 2.33155 27.4833C2.69937 23.4479 3.94526 19.5417 5.98192 16.0385C8.01858 12.5353 10.7967 9.51994 14.1216 7.20367C17.4466 4.8874 21.2378 3.32629 25.2297 2.62976C29.2216 1.93322 33.3175 2.11811 37.2304 3.17147C41.1432 4.22482 44.7784 6.12116 47.8811 8.72757C50.9839 11.334 53.479 14.5874 55.1918 18.2598C56.9045 21.9323 57.7934 25.9348 57.7962 29.987C57.7962 32.4927 57.2769 36.1149 56.8225 37.2314C55.3035 40.6751 52.1454 42.7231 48.1402 43.7455" fill="white"/>
<path d="M44.8971 26.7482C45.2357 24.5232 45.9688 22.3766 47.062 20.4093C44.5273 18.9096 41.6462 18.0946 38.7015 18.0446C35.7568 17.9945 32.8497 18.711 30.2655 20.1237C29.8237 20.936 29.4482 21.7827 29.1425 22.6554V22.6846C28.1497 22.9571 27.1921 23.3449 26.2895 23.84C25.3276 25.2992 24.7946 26.9991 24.751 28.7463C24.7073 30.4935 25.1549 32.2178 26.0428 33.7232L25.7962 32.2172C26.569 31.7208 27.4747 31.4717 28.3927 31.5031C31.0867 31.5031 34.7738 33.1 38.7335 35.9822C38.7011 35.8978 38.6686 35.8134 38.6394 35.729C37.246 31.8755 37.3619 27.6376 38.964 23.866C37.628 23.1295 36.1738 22.6319 34.6667 22.3957L34.7316 22.188C36.5547 22.3321 38.3413 22.7774 40.0188 23.5057C38.8495 26.9662 38.916 30.725 40.2071 34.1419C42.6235 35.0647 44.79 36.5409 46.5329 38.4522L46.7601 38.3516C44.9419 34.7746 44.2904 30.7178 44.8971 26.7514" fill="white"/>
<path d="M17.112 20.8376C17.2905 22.7591 17.6151 26.0307 17.6151 26.0307H18.1928C18.1928 26.0307 18.5174 22.7428 18.7089 20.8376C18.816 19.6756 19.2769 19.1628 20.1045 18.9616C20.7732 18.7928 22.8958 18.5007 22.8958 18.5007V17.9489C21.9131 17.8531 20.9374 17.6948 19.9747 17.4751C19.6442 17.4037 19.3411 17.2388 19.1017 17C18.8623 16.7612 18.6966 16.4585 18.6245 16.1281C18.4265 15.3881 18.1766 13.0804 18.1766 13.0804H17.6346C17.5298 14.1035 17.3739 15.1206 17.1672 16.1281C17.0982 16.4588 16.9344 16.7623 16.6958 17.0015C16.4572 17.2407 16.1541 17.4053 15.8235 17.4751C15.1159 17.712 12.9023 17.9489 12.9023 17.9489V18.5007C12.9023 18.5007 15.0088 18.8058 15.6936 18.9746C16.5213 19.1758 16.9919 19.6886 17.1023 20.8506" fill="white"/>
<path d="M39.6952 15.3484L39.2213 17.4257C37.7963 16.2273 36.0257 15.5154 34.1677 15.3939L34.0898 15.0888C34.9801 14.6938 35.9502 14.5116 36.9232 14.5566C37.8961 14.6017 38.8452 14.8728 39.6952 15.3484Z" fill="white"/>
<path d="M85.5496 15.4874C88.6741 15.4874 91.2242 16.4341 93.1997 18.3274C95.1471 20.2197 96.15 22.6052 96.15 25.4874C96.15 28.3696 95.1569 30.7617 93.1835 32.6604C91.2101 34.5592 88.6687 35.4972 85.5496 35.4972H80.4441V44.0626H72.7031V15.5004L85.5496 15.4874ZM80.4441 22.4397V28.5643H85.1244C85.5518 28.5707 85.9763 28.4925 86.3735 28.3343C86.7706 28.1761 87.1326 27.941 87.4386 27.6426C87.7388 27.3726 87.9788 27.0425 88.1431 26.6737C88.3074 26.305 88.3923 25.9058 88.3923 25.502C88.3923 25.0983 88.3074 24.6991 88.1431 24.3303C87.9788 23.9616 87.7388 23.6315 87.4386 23.3615C87.1336 23.0615 86.7718 22.8255 86.3745 22.6672C85.9771 22.5089 85.5521 22.4316 85.1244 22.4397H80.4441Z" fill="white"/>
<path d="M115.726 36.2956C116.242 35.7541 116.645 35.116 116.914 34.4182C117.182 33.7203 117.31 32.9762 117.291 32.2287V15.4874H125.041V32.2287C125.041 35.8185 123.811 38.8175 121.338 41.2485C118.865 43.6796 115.749 44.8837 111.99 44.8837C108.232 44.8837 105.119 43.6666 102.646 41.2485C100.173 38.8305 98.9395 35.8185 98.9395 32.2287V15.4874H106.687V32.2287C106.65 33.7386 107.214 35.2014 108.255 36.2956C108.728 36.814 109.305 37.228 109.948 37.5112C110.59 37.7945 111.285 37.9408 111.987 37.9408C112.689 37.9408 113.384 37.7945 114.027 37.5112C114.669 37.228 115.246 36.814 115.72 36.2956" fill="white"/>
<path d="M137.893 35.6161C138.656 36.3824 139.568 36.9842 140.573 37.3845C141.578 37.7847 142.654 37.9749 143.735 37.9433C145.155 37.9518 146.559 37.6389 147.841 37.028C149.139 36.4146 150.058 35.8044 150.632 35.1747L151.496 34.2594L155.972 39.1637C155.829 39.3829 155.673 39.5931 155.504 39.7933C155.06 40.2825 154.582 40.7412 154.076 41.1663C153.319 41.823 152.501 42.4076 151.635 42.9124C150.546 43.5033 149.39 43.961 148.192 44.2756C146.741 44.6822 145.242 44.8864 143.735 44.8826C139.3 44.8826 135.536 43.3961 132.444 40.423C129.351 37.4499 127.81 33.9002 127.818 29.7739C127.818 25.6388 129.359 22.088 132.44 19.1215C135.522 16.1549 139.285 14.6695 143.732 14.6651C145.209 14.6564 146.679 14.8553 148.101 15.2558C149.298 15.5778 150.447 16.0604 151.515 16.6904C152.336 17.1953 153.121 17.7559 153.865 18.3685C154.4 18.7919 154.887 19.2718 155.319 19.7998L155.77 20.384L151.067 25.2851C150.989 25.1715 150.889 25.0384 150.743 24.8729C150.457 24.5622 150.153 24.2695 149.831 23.9965C149.362 23.5862 148.859 23.216 148.328 22.8897C146.925 22.0824 145.34 21.6456 143.722 21.6207C142.643 21.5932 141.569 21.7851 140.566 22.1847C139.562 22.5843 138.651 23.1834 137.886 23.9456C137.121 24.7079 136.518 25.6174 136.115 26.6192C135.712 27.621 135.516 28.6942 135.54 29.7739C135.512 30.856 135.705 31.9325 136.108 32.9372C136.511 33.9419 137.115 34.8535 137.883 35.6161" fill="white"/>
<path d="M171.437 15.4874C174.579 15.4874 177.13 16.4341 179.09 18.3274C181.064 20.2197 182.041 22.6052 182.041 25.4874C182.041 28.3696 181.067 30.7617 179.084 32.6604C177.101 34.5592 174.572 35.4972 171.437 35.4972H166.338V44.0626H158.584V15.5004L171.437 15.4874ZM166.338 22.4397V28.5643H171.025C171.452 28.5713 171.876 28.4934 172.273 28.3352C172.669 28.177 173.031 27.9415 173.336 27.6426C173.638 27.3737 173.879 27.044 174.045 26.6751C174.21 26.3061 174.296 25.9064 174.296 25.502C174.296 25.0977 174.21 24.6979 174.045 24.329C173.879 23.9601 173.638 23.6304 173.336 23.3615C173.031 23.0619 172.67 22.8261 172.273 22.6679C171.876 22.5096 171.452 22.432 171.025 22.4397H166.338Z" fill="white"/>
</svg>
